Comme-Heavy.ufo
<glyph name="exclam" format="1">
  <advance width="792"/>
  <unicode hex="0021"/>
  <outline>
    <contour>
      <point x="329" y="487" type="line"/>
      <point x="487" y="487" type="line"/>
      <point x="556" y="1311" type="line"/>
      <point x="556" y="1621" type="line"/>
      <point x="251" y="1621" type="line"/>
      <point x="251" y="1311" type="line"/>
    </contour>
    <contour>
      <point x="395" y="-5" type="curve" smooth="yes"/>
      <point x="491" y="-5"/>
      <point x="579" y="83"/>
      <point x="579" y="187" type="curve" smooth="yes"/>
      <point x="579" y="296"/>
      <point x="491" y="376"/>
      <point x="395" y="376" type="curve" smooth="yes"/>
      <point x="297" y="376"/>
      <point x="206" y="296"/>
      <point x="206" y="187" type="curve" smooth="yes"/>
      <point x="206" y="81"/>
      <point x="297" y="-5"/>
    </contour>
  </outline>
</glyph>
<glyph name="ampersand" format="1">
  <advance width="1420"/>
  <unicode hex="0026"/>
  <outline>
    <contour>
      <point x="1178" y="-46" type="line"/>
      <point x="1414" y="132" type="line"/>
      <point x="1251" y="326" type="line"/>
      <point x="1327" y="422"/>
      <point x="1396" y="529"/>
      <point x="1466" y="639" type="curve"/>
      <point x="1253" y="792" type="line"/>
      <point x="1209" y="710"/>
      <point x="1151" y="614"/>
      <point x="1082" y="526" type="curve"/>
      <point x="785" y="881" type="line"/>
      <point x="945" y="964"/>
      <point x="1090" y="1150"/>
      <point x="1090" y="1260" type="curve" smooth="yes"/>
      <point x="1090" y="1497"/>
      <point x="846" y="1572"/>
      <point x="679" y="1572" type="curve" smooth="yes"/>
      <point x="490" y="1572"/>
      <point x="252" y="1468"/>
      <point x="252" y="1199" type="curve" smooth="yes"/>
      <point x="252" y="1055"/>
      <point x="410" y="905"/>
      <point x="410" y="908" type="curve"/>
      <point x="329" y="829"/>
      <point x="95" y="689"/>
      <point x="95" y="497" type="curve" smooth="yes"/>
      <point x="95" y="114"/>
      <point x="422" y="-14"/>
      <point x="646" y="-14" type="curve" smooth="yes"/>
      <point x="806" y="-14"/>
      <point x="934" y="35"/>
      <point x="1044" y="116" type="curve"/>
    </contour>
    <contour>
      <point x="639" y="240" type="curve" smooth="yes"/>
      <point x="527" y="240"/>
      <point x="420" y="298"/>
      <point x="420" y="446" type="curve" smooth="yes"/>
      <point x="420" y="569"/>
      <point x="519" y="643"/>
      <point x="568" y="690" type="curve"/>
      <point x="873" y="319" type="line"/>
      <point x="802" y="274"/>
      <point x="722" y="240"/>
    </contour>
    <contour>
      <point x="661" y="1046" type="curve"/>
      <point x="597" y="1121"/>
      <point x="585" y="1160"/>
      <point x="585" y="1248" type="curve" smooth="yes"/>
      <point x="585" y="1311"/>
      <point x="625" y="1335"/>
      <point x="671" y="1336" type="curve" smooth="yes"/>
      <point x="724" y="1336"/>
      <point x="781" y="1328"/>
      <point x="781" y="1255" type="curve" smooth="yes"/>
      <point x="781" y="1208"/>
      <point x="714" y="1072"/>
    </contour>
  </outline>
</glyph>
<glyph name="plus" format="1">
  <advance width="1218"/>
  <unicode hex="002B"/>
  <outline>
    <contour>
      <point x="467" y="242" type="line"/>
      <point x="754" y="242" type="line"/>
      <point x="754" y="619" type="line"/>
      <point x="1128" y="619" type="line"/>
      <point x="1128" y="903" type="line"/>
      <point x="755" y="903" type="line"/>
      <point x="755" y="1271" type="line"/>
      <point x="466" y="1271" type="line"/>
      <point x="466" y="903" type="line"/>
      <point x="95" y="903" type="line"/>
      <point x="95" y="619" type="line"/>
      <point x="467" y="619" type="line"/>
    </contour>
  </outline>
</glyph>
<glyph name="comma" format="1">
  <advance width="708"/>
  <unicode hex="002C"/>
  <outline>
    <contour>
      <point x="180" y="-375" type="curve"/>
      <point x="448" y="-375" type="line"/>
      <point x="448" y="-375"/>
      <point x="574" y="80"/>
      <point x="574" y="80" type="curve"/>
      <point x="574" y="304" type="line"/>
      <point x="215" y="304" type="line"/>
      <point x="215" y="209"/>
      <point x="180" y="-375"/>
    </contour>
  </outline>
</glyph>
<glyph name="three" format="1">
  <advance width="1214"/>
  <unicode hex="0033"/>
  <outline>
    <contour>
      <point x="523" y="-20" type="curve" smooth="yes"/>
      <point x="768" y="-20"/>
      <point x="1130" y="53"/>
      <point x="1130" y="436" type="curve" smooth="yes"/>
      <point x="1130" y="546"/>
      <point x="1063" y="715"/>
      <point x="790" y="746" type="curve"/>
      <point x="1065" y="792"/>
      <point x="1086" y="974"/>
      <point x="1086" y="1093" type="curve" smooth="yes"/>
      <point x="1077" y="1387"/>
      <point x="814" y="1476"/>
      <point x="498" y="1476" type="curve" smooth="yes"/>
      <point x="196" y="1476"/>
      <point x="86" y="1324"/>
      <point x="20" y="1283" type="curve"/>
      <point x="210" y="1056" type="line"/>
      <point x="231" y="1048" type="line"/>
      <point x="313" y="1102"/>
      <point x="382" y="1131"/>
      <point x="463" y="1137" type="curve" smooth="yes"/>
      <point x="564" y="1137"/>
      <point x="618" y="1109"/>
      <point x="628" y="1016" type="curve" smooth="yes"/>
      <point x="628" y="874"/>
      <point x="576" y="837"/>
      <point x="341" y="837" type="curve" smooth="yes"/>
      <point x="216" y="835" type="line"/>
      <point x="235" y="586" type="line"/>
      <point x="347" y="586" type="line" smooth="yes"/>
      <point x="513" y="586"/>
      <point x="636" y="581"/>
      <point x="636" y="455" type="curve" smooth="yes"/>
      <point x="636" y="381"/>
      <point x="609" y="312"/>
      <point x="478" y="312" type="curve" smooth="yes"/>
      <point x="315" y="312"/>
      <point x="232" y="400"/>
      <point x="192" y="418" type="curve"/>
      <point x="159" y="418" type="line"/>
      <point x="-4" y="178" type="line"/>
      <point x="-14" y="205"/>
      <point x="147" y="-20"/>
    </contour>
  </outline>
</glyph>
<glyph name="eight" format="1">
  <advance width="1445"/>
  <unicode hex="0038"/>
  <outline>
    <contour>
      <point x="730" y="-20" type="curve" smooth="yes"/>
      <point x="1122" y="-20"/>
      <point x="1316" y="144"/>
      <point x="1316" y="404" type="curve" smooth="yes"/>
      <point x="1316" y="603"/>
      <point x="1246" y="734"/>
      <point x="1119" y="786" type="curve"/>
      <point x="1234" y="833"/>
      <point x="1294" y="939"/>
      <point x="1294" y="1109" type="curve" smooth="yes"/>
      <point x="1294" y="1350"/>
      <point x="1049" y="1476"/>
      <point x="725" y="1476" type="curve" smooth="yes"/>
      <point x="402" y="1476"/>
      <point x="155" y="1350"/>
      <point x="155" y="1109" type="curve" smooth="yes"/>
      <point x="155" y="930"/>
      <point x="221" y="830"/>
      <point x="347" y="787" type="curve"/>
      <point x="214" y="739"/>
      <point x="129" y="590"/>
      <point x="129" y="404" type="curve" smooth="yes"/>
      <point x="129" y="144"/>
      <point x="332" y="-20"/>
    </contour>
    <contour>
      <point x="730" y="254" type="curve" smooth="yes"/>
      <point x="655" y="254"/>
      <point x="630" y="304"/>
      <point x="630" y="417" type="curve" smooth="yes"/>
      <point x="630" y="538"/>
      <point x="666" y="649"/>
      <point x="730" y="680" type="curve"/>
      <point x="791" y="649"/>
      <point x="823" y="540"/>
      <point x="823" y="418" type="curve" smooth="yes"/>
      <point x="823" y="306"/>
      <point x="803" y="254"/>
    </contour>
    <contour>
      <point x="730" y="848" type="curve"/>
      <point x="662" y="894"/>
      <point x="610" y="990"/>
      <point x="610" y="1077" type="curve" smooth="yes"/>
      <point x="610" y="1156"/>
      <point x="656" y="1207"/>
      <point x="730" y="1207" type="curve" smooth="yes"/>
      <point x="800" y="1207"/>
      <point x="839" y="1157"/>
      <point x="839" y="1077" type="curve" smooth="yes"/>
      <point x="839" y="991"/>
      <point x="794" y="894"/>
    </contour>
  </outline>
</glyph>
<glyph name="nine" format="1">
  <advance width="1445"/>
  <unicode hex="0039"/>
  <outline>
    <contour>
      <point x="311" y="0" type="line"/>
      <point x="802" y="0" type="line"/>
      <point x="1214" y="617" type="line"/>
      <point x="1283" y="724"/>
      <point x="1329" y="828"/>
      <point x="1329" y="980" type="curve" smooth="yes"/>
      <point x="1329" y="1284"/>
      <point x="1109" y="1476"/>
      <point x="729" y="1476" type="curve" smooth="yes"/>
      <point x="353" y="1476"/>
      <point x="134" y="1293"/>
      <point x="134" y="1007" type="curve" smooth="yes"/>
      <point x="134" y="662"/>
      <point x="395" y="554"/>
      <point x="582" y="554" type="curve" smooth="yes"/>
      <point x="629" y="554"/>
      <point x="673" y="566"/>
      <point x="707" y="575" type="curve"/>
      <point x="714" y="584"/>
      <point x="557" y="395"/>
      <point x="564" y="404" type="curve" smooth="yes"/>
      <point x="589" y="436"/>
      <point x="286" y="5"/>
      <point x="311" y="36" type="curve"/>
    </contour>
    <contour>
      <point x="734" y="787" type="curve" smooth="yes"/>
      <point x="658" y="787"/>
      <point x="600" y="858"/>
      <point x="600" y="987" type="curve" smooth="yes"/>
      <point x="600" y="1109"/>
      <point x="652" y="1169"/>
      <point x="727" y="1169" type="curve" smooth="yes"/>
      <point x="803" y="1169"/>
      <point x="857" y="1109"/>
      <point x="857" y="987" type="curve" smooth="yes"/>
      <point x="857" y="883"/>
      <point x="835" y="787"/>
    </contour>
  </outline>
</glyph>
<glyph name="semicolon" format="1">
  <advance width="792"/>
  <unicode hex="003B"/>
  <outline>
    <contour>
      <point x="178" y="-375" type="curve"/>
      <point x="446" y="-375" type="line"/>
      <point x="446" y="-375"/>
      <point x="573" y="80"/>
      <point x="573" y="80" type="curve"/>
      <point x="573" y="304" type="line"/>
      <point x="212" y="304" type="line"/>
      <point x="212" y="209"/>
      <point x="178" y="-375"/>
    </contour>
    <contour>
      <point x="390" y="761" type="curve" smooth="yes"/>
      <point x="493" y="761"/>
      <point x="591" y="812"/>
      <point x="591" y="942" type="curve" smooth="yes"/>
      <point x="591" y="1082"/>
      <point x="493" y="1133"/>
      <point x="390" y="1133" type="curve" smooth="yes"/>
      <point x="290" y="1133"/>
      <point x="192" y="1082"/>
      <point x="192" y="942" type="curve" smooth="yes"/>
      <point x="192" y="808"/>
      <point x="292" y="761"/>
    </contour>
  </outline>
</glyph>
<glyph name="less" format="1">
  <advance width="1107"/>
  <unicode hex="003C"/>
  <outline>
    <contour>
      <point x="996" y="214" type="line"/>
      <point x="996" y="523" type="line"/>
      <point x="458" y="774" type="line"/>
      <point x="996" y="1053" type="line"/>
      <point x="996" y="1349" type="line"/>
      <point x="43" y="848" type="line"/>
      <point x="43" y="683" type="line"/>
    </contour>
  </outline>
</glyph>
<glyph name="greater" format="1">
  <advance width="1107"/>
  <unicode hex="003E"/>
  <outline>
    <contour>
      <point x="79" y="212" type="line"/>
      <point x="1032" y="685" type="line"/>
      <point x="1032" y="850" type="line"/>
      <point x="78" y="1347" type="line"/>
      <point x="78" y="1051" type="line"/>
      <point x="620" y="774" type="line"/>
      <point x="79" y="521" type="line"/>
    </contour>
  </outline>
</glyph>
<glyph name="C" format="1">
  <advance width="1683"/>
  <unicode hex="0043"/>
  <outline>
    <contour>
      <point x="941" y="1456" type="move" name="top"/>
    </contour>
    <contour>
      <point x="900" y="-1" type="move" name="bot"/>
    </contour>
    <contour>
      <point x="878" y="-20" type="curve" smooth="yes"/>
      <point x="1347" y="-20"/>
      <point x="1497" y="260"/>
      <point x="1563" y="428" type="curve"/>
      <point x="1206" y="516" type="line"/>
      <point x="1184" y="516" type="line"/>
      <point x="1143" y="389"/>
      <point x="1050" y="315"/>
      <point x="911" y="315" type="curve" smooth="yes"/>
      <point x="705" y="315"/>
      <point x="614" y="453"/>
      <point x="614" y="737" type="curve" smooth="yes"/>
      <point x="614" y="999"/>
      <point x="709" y="1126"/>
      <point x="924" y="1126" type="curve" smooth="yes"/>
      <point x="1065" y="1126"/>
      <point x="1162" y="1053"/>
      <point x="1210" y="900" type="curve"/>
      <point x="1244" y="900" type="line"/>
      <point x="1589" y="987" type="line"/>
      <point x="1550" y="1136"/>
      <point x="1387" y="1478"/>
      <point x="890" y="1478" type="curve" smooth="yes"/>
      <point x="430" y="1478"/>
      <point x="96" y="1203"/>
      <point x="96" y="735" type="curve" smooth="yes"/>
      <point x="96" y="224"/>
      <point x="429" y="-20"/>
    </contour>
  </outline>
</glyph>
<glyph name="D" format="1">
  <advance width="1585"/>
  <unicode hex="0044"/>
  <outline>
    <contour>
      <point x="849" y="1456" type="move" name="top"/>
    </contour>
    <contour>
      <point x="765" y="1" type="move" name="bot"/>
    </contour>
    <contour>
      <point x="425" y="736" type="move" name="mid"/>
    </contour>
    <contour>
      <point x="615" y="335" type="curve" smooth="yes"/>
      <point x="625" y="335"/>
      <point x="627" y="334"/>
      <point x="638" y="333" type="curve"/>
      <point x="638" y="1155" type="line"/>
      <point x="623" y="1153"/>
      <point x="617" y="1152"/>
      <point x="605" y="1152" type="curve" smooth="yes"/>
      <point x="1011" y="1152"/>
      <point x="1026" y="937"/>
      <point x="1026" y="760" type="curve" smooth="yes"/>
      <point x="1026" y="484"/>
      <point x="908" y="335"/>
    </contour>
    <contour>
      <point x="483" y="-12" type="curve" smooth="yes"/>
      <point x="1269" y="-12"/>
      <point x="1490" y="304"/>
      <point x="1490" y="765" type="curve" smooth="yes"/>
      <point x="1490" y="1332"/>
      <point x="1190" y="1469"/>
      <point x="475" y="1469" type="curve" smooth="yes"/>
      <point x="376" y="1469"/>
      <point x="268" y="1469"/>
      <point x="154" y="1465" type="curve"/>
      <point x="154" y="3" type="line"/>
      <point x="273" y="-8"/>
      <point x="382" y="-12"/>
    </contour>
  </outline>
</glyph>
<glyph name="F" format="1">
  <advance width="1283"/>
  <unicode hex="0046"/>
  <outline>
    <contour>
      <point x="721" y="1456" type="move" name="top"/>
    </contour>
    <contour>
      <point x="154" y="0" type="line"/>
      <point x="638" y="0" type="line"/>
      <point x="638" y="550" type="line"/>
      <point x="1181" y="550" type="line"/>
      <point x="1181" y="863" type="line"/>
      <point x="638" y="863" type="line"/>
      <point x="638" y="1129" type="line"/>
      <point x="1167" y="1129" type="line"/>
      <point x="1188" y="1456" type="line"/>
      <point x="154" y="1456" type="line"/>
    </contour>
  </outline>
</glyph>
<glyph name="G" format="1">
  <advance width="1659"/>
  <unicode hex="0047"/>
  <outline>
    <contour>
      <point x="858" y="1456" type="move" name="top"/>
    </contour>
    <contour>
      <point x="734" y="-1" type="move" name="bot"/>
    </contour>
    <contour>
      <point x="851" y="-20" type="curve" smooth="yes"/>
      <point x="1123" y="-20"/>
      <point x="1383" y="40"/>
      <point x="1511" y="90" type="curve"/>
      <point x="1511" y="812" type="line"/>
      <point x="839" y="812" type="line"/>
      <point x="830" y="551" type="line"/>
      <point x="1123" y="532" type="line"/>
      <point x="1123" y="331" type="line"/>
      <point x="1072" y="309"/>
      <point x="1005" y="295"/>
      <point x="927" y="295" type="curve" smooth="yes"/>
      <point x="817" y="295"/>
      <point x="618" y="318"/>
      <point x="618" y="721" type="curve" smooth="yes"/>
      <point x="618" y="1063"/>
      <point x="707" y="1157"/>
      <point x="890" y="1157" type="curve" smooth="yes"/>
      <point x="1054" y="1157"/>
      <point x="1105" y="1034"/>
      <point x="1147" y="902" type="curve"/>
      <point x="1175" y="902" type="line"/>
      <point x="1516" y="1035" type="line"/>
      <point x="1441" y="1290"/>
      <point x="1253" y="1478"/>
      <point x="840" y="1478" type="curve" smooth="yes"/>
      <point x="387" y="1478"/>
      <point x="96" y="1216"/>
      <point x="96" y="722" type="curve" smooth="yes"/>
      <point x="96" y="216"/>
      <point x="407" y="-20"/>
    </contour>
  </outline>
</glyph>
<glyph name="H" format="1">
  <advance width="1624"/>
  <unicode hex="0048"/>
  <outline>
    <contour>
      <point x="822" y="1456" type="move" name="top"/>
    </contour>
    <contour>
      <point x="152" y="0" type="line"/>
      <point x="636" y="0" type="line"/>
      <point x="636" y="591" type="line"/>
      <point x="986" y="591" type="line"/>
      <point x="986" y="0" type="line"/>
      <point x="1472" y="0" type="line"/>
      <point x="1472" y="1456" type="line"/>
      <point x="986" y="1456" type="line"/>
      <point x="986" y="897" type="line"/>
      <point x="636" y="897" type="line"/>
      <point x="636" y="1456" type="line"/>
      <point x="152" y="1456" type="line"/>
    </contour>
  </outline>
</glyph>
<glyph name="I" format="1">
  <advance width="1095"/>
  <unicode hex="0049"/>
  <outline>
    <contour>
      <point x="554" y="1456" type="move" name="top"/>
    </contour>
    <contour>
      <point x="581" y="0" type="move" name="ogonek"/>
    </contour>
    <contour>
      <point x="79" y="-8" type="line"/>
      <point x="1020" y="-8" type="line"/>
      <point x="1020" y="243" type="line"/>
      <point x="796" y="243" type="line"/>
      <point x="796" y="1204" type="line"/>
      <point x="1020" y="1204" type="line"/>
      <point x="1020" y="1456" type="line"/>
      <point x="79" y="1456" type="line"/>
      <point x="79" y="1204" type="line"/>
      <point x="313" y="1204" type="line"/>
      <point x="313" y="243" type="line"/>
      <point x="79" y="243" type="line"/>
    </contour>
  </outline>
</glyph>
<glyph name="J" format="1">
  <advance width="828"/>
  <unicode hex="004A"/>
  <outline>
    <contour>
      <point x="449" y="1456" type="move" name="top"/>
    </contour>
    <contour>
      <point x="11" y="-676" type="line"/>
      <point x="222" y="-579" type="line"/>
      <point x="765" y="-329"/>
      <point x="686" y="-124"/>
      <point x="686" y="406" type="curve" smooth="yes"/>
      <point x="686" y="1456" type="line"/>
      <point x="203" y="1456" type="line"/>
      <point x="203" y="420" type="line" smooth="yes"/>
      <point x="203" y="-44"/>
      <point x="192" y="-121"/>
      <point x="73" y="-183" type="curve" smooth="yes"/>
      <point x="-162" y="-302" type="line"/>
    </contour>
  </outline>
</glyph>
<glyph name="K" format="1">
  <advance width="1527"/>
  <unicode hex="004B"/>
  <outline>
    <contour>
      <point x="829" y="1456" type="move" name="top"/>
    </contour>
    <contour>
      <point x="824" y="0" type="move" name="bot"/>
    </contour>
    <contour>
      <point x="154" y="0" type="line"/>
      <point x="638" y="0" type="line"/>
      <point x="638" y="505" type="line"/>
      <point x="629" y="508" type="line"/>
      <point x="981" y="0" type="line"/>
      <point x="1520" y="0" type="line"/>
      <point x="1520" y="0" type="line"/>
      <point x="982" y="771" type="line"/>
      <point x="1451" y="1454" type="line"/>
      <point x="1451" y="1456" type="line"/>
      <point x="925" y="1456" type="line"/>
      <point x="638" y="975" type="line"/>
      <point x="638" y="1456" type="line"/>
      <point x="154" y="1456" type="line"/>
    </contour>
  </outline>
</glyph>
<glyph name="P" format="1">
  <advance width="1541"/>
  <unicode hex="0050"/>
  <outline>
    <contour>
      <point x="754" y="1456" type="move" name="top"/>
    </contour>
    <contour>
      <point x="154" y="0" type="line"/>
      <point x="638" y="0" type="line"/>
      <point x="638" y="419" type="line"/>
      <point x="672" y="418"/>
      <point x="704" y="417"/>
      <point x="737" y="417" type="curve" smooth="yes"/>
      <point x="1281" y="417"/>
      <point x="1485" y="609"/>
      <point x="1485" y="977" type="curve" smooth="yes"/>
      <point x="1485" y="1321"/>
      <point x="1281" y="1469"/>
      <point x="530" y="1469" type="curve" smooth="yes"/>
      <point x="417" y="1469"/>
      <point x="291" y="1466"/>
      <point x="154" y="1460" type="curve"/>
    </contour>
    <contour>
      <point x="660" y="722" type="curve" smooth="yes"/>
      <point x="652" y="722"/>
      <point x="645" y="721"/>
      <point x="638" y="721" type="curve"/>
      <point x="638" y="1176" type="line"/>
      <point x="635" y="1174"/>
      <point x="635" y="1175"/>
      <point x="636" y="1175" type="curve" smooth="yes"/>
      <point x="984" y="1175"/>
      <point x="1018" y="1064"/>
      <point x="1018" y="951" type="curve" smooth="yes"/>
      <point x="1018" y="835"/>
      <point x="947" y="722"/>
    </contour>
  </outline>
</glyph>
<glyph name="Q" format="1">
  <advance width="1699"/>
  <unicode hex="0051"/>
  <outline>
    <contour>
      <point x="1291" y="-590" type="curve"/>
      <point x="1594" y="-329" type="line"/>
      <point x="1377" y="-148"/>
      <point x="1270" y="-35"/>
      <point x="1139" y="162" type="curve"/>
      <point x="706" y="114" type="line"/>
      <point x="742" y="-15"/>
      <point x="1066" y="-407"/>
    </contour>
    <component base="O"/>
  </outline>
</glyph>
<glyph name="Y" format="1">
  <advance width="1339"/>
  <unicode hex="0059"/>
  <outline>
    <contour>
      <point x="675" y="1456" type="move" name="top"/>
    </contour>
    <contour>
      <point x="425" y="0" type="line"/>
      <point x="908" y="0" type="line"/>
      <point x="908" y="605" type="line"/>
      <point x="1382" y="1456" type="line"/>
      <point x="867" y="1456" type="line"/>
      <point x="665" y="1063" type="line"/>
      <point x="478" y="1456" type="line"/>
      <point x="-43" y="1456" type="line"/>
      <point x="425" y="597" type="line"/>
    </contour>
  </outline>
</glyph>
<glyph name="Z" format="1">
  <advance width="1309"/>
  <unicode hex="005A"/>
  <outline>
    <contour>
      <point x="626" y="1456" type="move" name="top"/>
    </contour>
    <contour>
      <point x="570" y="0" type="move" name="bot"/>
    </contour>
    <contour>
      <point x="116" y="0" type="line"/>
      <point x="1222" y="0" type="line"/>
      <point x="1197" y="291" type="line"/>
      <point x="691" y="291" type="line"/>
      <point x="1175" y="1198" type="line"/>
      <point x="1178" y="1456" type="line"/>
      <point x="112" y="1456" type="line"/>
      <point x="137" y="1162" type="line"/>
      <point x="657" y="1162" type="line"/>
      <point x="116" y="233" type="line"/>
    </contour>
  </outline>
</glyph>
<glyph name="bracketleft" format="1">
  <advance width="823"/>
  <unicode hex="005B"/>
  <outline>
    <contour>
      <point x="231" y="-247" type="line"/>
      <point x="670" y="-247" type="line"/>
      <point x="670" y="7" type="line"/>
      <point x="517" y="7" type="line"/>
      <point x="517" y="1236" type="line"/>
      <point x="670" y="1236" type="line"/>
      <point x="670" y="1487" type="line"/>
      <point x="231" y="1487" type="line"/>
    </contour>
  </outline>
</glyph>
<glyph name="b" format="1">
  <advance width="1312"/>
  <unicode hex="0062"/>
  <outline>
    <contour>
      <point x="851" y="1082" type="move" name="top"/>
    </contour>
    <contour>
      <point x="819" y="-20" type="curve" smooth="yes"/>
      <point x="1116" y="-20"/>
      <point x="1252" y="222"/>
      <point x="1252" y="553" type="curve" smooth="yes"/>
      <point x="1252" y="855"/>
      <point x="1108" y="1100"/>
      <point x="825" y="1100" type="curve" smooth="yes"/>
      <point x="688" y="1100"/>
      <point x="610" y="1042"/>
      <point x="563" y="985" type="curve"/>
      <point x="573" y="1171" type="line"/>
      <point x="573" y="1560" type="line"/>
      <point x="120" y="1540" type="line"/>
      <point x="120" y="0" type="line"/>
      <point x="533" y="0" type="line"/>
      <point x="542" y="146" type="line"/>
      <point x="577" y="72"/>
      <point x="660" y="-20"/>
    </contour>
    <contour>
      <point x="695" y="260" type="curve" smooth="yes"/>
      <point x="600" y="260"/>
      <point x="591" y="296"/>
      <point x="576" y="312" type="curve"/>
      <point x="576" y="569" type="line" smooth="yes"/>
      <point x="576" y="815"/>
      <point x="674" y="819"/>
      <point x="705" y="819" type="curve" smooth="yes"/>
      <point x="730" y="819"/>
      <point x="791" y="814"/>
      <point x="791" y="554" type="curve" smooth="yes"/>
      <point x="791" y="310"/>
      <point x="720" y="260"/>
    </contour>
  </outline>
</glyph>
<glyph name="c" format="1">
  <advance width="1158"/>
  <unicode hex="0063"/>
  <outline>
    <contour>
      <point x="622" y="1082" type="move" name="top"/>
    </contour>
    <contour>
      <point x="641" y="0" type="move" name="bot"/>
    </contour>
    <contour>
      <point x="659" y="-20" type="curve" smooth="yes"/>
      <point x="852" y="-20"/>
      <point x="996" y="36"/>
      <point x="1102" y="259" type="curve"/>
      <point x="863" y="381" type="line"/>
      <point x="850" y="381" type="line"/>
      <point x="795" y="288"/>
      <point x="730" y="277"/>
      <point x="672" y="280" type="curve" smooth="yes"/>
      <point x="598" y="285"/>
      <point x="514" y="310"/>
      <point x="514" y="541" type="curve" smooth="yes"/>
      <point x="514" y="763"/>
      <point x="604" y="800"/>
      <point x="677" y="800" type="curve" smooth="yes"/>
      <point x="735" y="803"/>
      <point x="800" y="793"/>
      <point x="855" y="699" type="curve"/>
      <point x="868" y="699" type="line"/>
      <point x="1107" y="821" type="line"/>
      <point x="1001" y="1044"/>
      <point x="856" y="1100"/>
      <point x="664" y="1100" type="curve" smooth="yes"/>
      <point x="292" y="1100"/>
      <point x="59" y="887"/>
      <point x="59" y="541" type="curve" smooth="yes"/>
      <point x="59" y="194"/>
      <point x="287" y="-20"/>
    </contour>
  </outline>
</glyph>
<glyph name="e" format="1">
  <advance width="1233"/>
  <unicode hex="0065"/>
  <outline>
    <contour>
      <point x="624" y="1082" type="move" name="top"/>
    </contour>
    <contour>
      <point x="770" y="-10" type="move" name="ogonek"/>
    </contour>
    <contour>
      <point x="681" y="0" type="move" name="bot"/>
    </contour>
    <contour>
      <point x="678" y="-20" type="curve" smooth="yes"/>
      <point x="878" y="-20"/>
      <point x="1061" y="41"/>
      <point x="1141" y="130" type="curve"/>
      <point x="1045" y="348" type="line"/>
      <point x="1025" y="348" type="line"/>
      <point x="946" y="294"/>
      <point x="831" y="260"/>
      <point x="728" y="260" type="curve" smooth="yes"/>
      <point x="616" y="260"/>
      <point x="527" y="331"/>
      <point x="510" y="407" type="curve"/>
      <point x="1131" y="407" type="line"/>
      <point x="1131" y="406"/>
      <point x="1146" y="453"/>
      <point x="1146" y="561" type="curve" smooth="yes"/>
      <point x="1130" y="867"/>
      <point x="1018" y="1100"/>
      <point x="630" y="1100" type="curve" smooth="yes"/>
      <point x="266" y="1100"/>
      <point x="59" y="881"/>
      <point x="59" y="544" type="curve" smooth="yes"/>
      <point x="59" y="199"/>
      <point x="287" y="-20"/>
    </contour>
    <contour>
      <point x="497" y="638" type="line"/>
      <point x="500" y="799"/>
      <point x="565" y="825"/>
      <point x="645" y="825" type="curve" smooth="yes"/>
      <point x="716" y="825"/>
      <point x="766" y="794"/>
      <point x="766" y="638" type="curve"/>
    </contour>
  </outline>
</glyph>
<glyph name="f" format="1">
  <advance width="886"/>
  <unicode hex="0066"/>
  <outline>
    <contour>
      <point x="505" y="1456" type="move" name="top"/>
    </contour>
    <contour>
      <point x="138" y="0" type="line"/>
      <point x="599" y="0" type="line"/>
      <point x="599" y="827" type="line"/>
      <point x="857" y="827" type="line"/>
      <point x="857" y="1082" type="line"/>
      <point x="599" y="1082" type="line"/>
      <point x="599" y="1156" type="line" smooth="yes"/>
      <point x="599" y="1206"/>
      <point x="667" y="1236"/>
      <point x="751" y="1236" type="curve" smooth="yes"/>
      <point x="786" y="1236"/>
      <point x="805" y="1235"/>
      <point x="904" y="1222" type="curve"/>
      <point x="912" y="1486" type="line"/>
      <point x="868" y="1497"/>
      <point x="770" y="1523"/>
      <point x="577" y="1523" type="curve" smooth="yes"/>
      <point x="356" y="1523"/>
      <point x="138" y="1433"/>
      <point x="138" y="1156" type="curve" smooth="yes"/>
      <point x="138" y="1075" type="line"/>
      <point x="23" y="1049" type="line"/>
      <point x="18" y="827" type="line"/>
      <point x="138" y="827" type="line"/>
    </contour>
  </outline>
</glyph>
<glyph name="g" format="1">
  <advance width="1285"/>
  <unicode hex="0067"/>
  <outline>
    <contour>
      <point x="568" y="1082" type="move" name="top"/>
    </contour>
    <contour>
      <point x="597" y="-525" type="curve" smooth="yes"/>
      <point x="871" y="-525"/>
      <point x="1188" y="-395"/>
      <point x="1188" y="-49" type="curve" smooth="yes"/>
      <point x="1188" y="1082" type="line"/>
      <point x="729" y="1082" type="line"/>
      <point x="733" y="1001" type="line"/>
      <point x="691" y="1050"/>
      <point x="622" y="1100"/>
      <point x="501" y="1100" type="curve" smooth="yes"/>
      <point x="331" y="1100"/>
      <point x="60" y="986"/>
      <point x="60" y="574" type="curve" smooth="yes"/>
      <point x="60" y="37"/>
      <point x="355" y="7"/>
      <point x="483" y="7" type="curve" smooth="yes"/>
      <point x="649" y="7"/>
      <point x="725" y="60"/>
      <point x="761" y="99" type="curve"/>
      <point x="777" y="-11"/>
      <point x="778" y="-16"/>
      <point x="778" y="-37" type="curve" smooth="yes"/>
      <point x="778" y="-187"/>
      <point x="647" y="-249"/>
      <point x="493" y="-249" type="curve" smooth="yes"/>
      <point x="418" y="-249"/>
      <point x="334" y="-234"/>
      <point x="237" y="-210" type="curve"/>
      <point x="204" y="-210" type="line"/>
      <point x="174" y="-485" type="line"/>
      <point x="309" y="-521"/>
      <point x="446" y="-525"/>
    </contour>
    <contour>
      <point x="626" y="260" type="curve" smooth="yes"/>
      <point x="574" y="260"/>
      <point x="517" y="330"/>
      <point x="517" y="571" type="curve" smooth="yes"/>
      <point x="517" y="843"/>
      <point x="627" y="819"/>
      <point x="634" y="819" type="curve" smooth="yes"/>
      <point x="703" y="819"/>
      <point x="704" y="800"/>
      <point x="735" y="780" type="curve"/>
      <point x="735" y="286" type="line"/>
      <point x="706" y="276"/>
      <point x="658" y="260"/>
    </contour>
  </outline>
</glyph>
<glyph name="h" format="1">
  <advance width="1307"/>
  <unicode hex="0068"/>
  <outline>
    <contour>
      <point x="909" y="1348" type="move" name="top"/>
    </contour>
    <contour>
      <point x="476" y="1232" type="move" name="mid"/>
    </contour>
    <contour>
      <point x="120" y="0" type="line"/>
      <point x="581" y="0" type="line"/>
      <point x="581" y="634" type="line" smooth="yes"/>
      <point x="581" y="808"/>
      <point x="644" y="819"/>
      <point x="659" y="819" type="curve" smooth="yes"/>
      <point x="713" y="819"/>
      <point x="750" y="791"/>
      <point x="750" y="607" type="curve" smooth="yes"/>
      <point x="750" y="0" type="line"/>
      <point x="1208" y="0" type="line"/>
      <point x="1208" y="675" type="line" smooth="yes"/>
      <point x="1208" y="934"/>
      <point x="1109" y="1100"/>
      <point x="863" y="1100" type="curve" smooth="yes"/>
      <point x="701" y="1100"/>
      <point x="620" y="1025"/>
      <point x="574" y="939" type="curve"/>
      <point x="580" y="1165" type="line"/>
      <point x="580" y="1560" type="line"/>
      <point x="120" y="1540" type="line"/>
    </contour>
  </outline>
</glyph>
<glyph name="l" format="1">
  <advance width="831"/>
  <unicode hex="006C"/>
  <outline>
    <contour>
      <point x="314" y="1585" type="move" name="top"/>
    </contour>
    <contour>
      <point x="348" y="916" type="move" name="mid"/>
    </contour>
    <contour>
      <point x="775" y="-13" type="line"/>
      <point x="791" y="291" type="line"/>
      <point x="761" y="296" type="line" smooth="yes"/>
      <point x="615" y="322"/>
      <point x="583" y="430"/>
      <point x="583" y="750" type="curve" smooth="yes"/>
      <point x="583" y="1560" type="line"/>
      <point x="123" y="1540" type="line"/>
      <point x="123" y="763" type="line" smooth="yes"/>
      <point x="123" y="263"/>
      <point x="214" y="12"/>
      <point x="631" y="-7" type="curve" smooth="yes"/>
    </contour>
  </outline>
</glyph>
<glyph name="m" format="1">
  <advance width="1958"/>
  <unicode hex="006D"/>
  <outline>
    <contour>
      <point x="1131" y="1082" type="move" name="top"/>
    </contour>
    <contour>
      <point x="108" y="0" type="line"/>
      <point x="567" y="0" type="line"/>
      <point x="567" y="616" type="line"/>
      <point x="562" y="793"/>
      <point x="615" y="819"/>
      <point x="659" y="819" type="curve" smooth="yes"/>
      <point x="717" y="819"/>
      <point x="754" y="795"/>
      <point x="754" y="628" type="curve" smooth="yes"/>
      <point x="754" y="0" type="line"/>
      <point x="1214" y="0" type="line"/>
      <point x="1214" y="761"/>
      <point x="1214" y="699"/>
      <point x="1213" y="697" type="curve" smooth="yes"/>
      <point x="1211" y="744"/>
      <point x="1242" y="819"/>
      <point x="1303" y="819" type="curve" smooth="yes"/>
      <point x="1350" y="819"/>
      <point x="1400" y="819"/>
      <point x="1400" y="614" type="curve" smooth="yes"/>
      <point x="1400" y="0" type="line"/>
      <point x="1861" y="0" type="line"/>
      <point x="1861" y="663" type="line" smooth="yes"/>
      <point x="1861" y="928"/>
      <point x="1732" y="1100"/>
      <point x="1481" y="1100" type="curve" smooth="yes"/>
      <point x="1293" y="1100"/>
      <point x="1211" y="1003"/>
      <point x="1168" y="927" type="curve"/>
      <point x="1090" y="1077"/>
      <point x="950" y="1100"/>
      <point x="837" y="1100" type="curve" smooth="yes"/>
      <point x="655" y="1100"/>
      <point x="571" y="1004"/>
      <point x="523" y="924" type="curve"/>
      <point x="504" y="1082" type="line"/>
      <point x="108" y="1082" type="line"/>
    </contour>
  </outline>
</glyph>
<glyph name="n" format="1">
  <advance width="1302"/>
  <unicode hex="006E"/>
  <outline>
    <contour>
      <point x="706" y="1082" type="move" name="top"/>
    </contour>
    <contour>
      <point x="682" y="0" type="move" name="bot"/>
    </contour>
    <contour>
      <point x="112" y="0" type="line"/>
      <point x="573" y="0" type="line"/>
      <point x="573" y="628" type="line" smooth="yes"/>
      <point x="573" y="799"/>
      <point x="629" y="819"/>
      <point x="651" y="819" type="curve" smooth="yes"/>
      <point x="702" y="819"/>
      <point x="743" y="800"/>
      <point x="743" y="605" type="curve" smooth="yes"/>
      <point x="743" y="0" type="line"/>
      <point x="1203" y="0" type="line"/>
      <point x="1203" y="682" type="line" smooth="yes"/>
      <point x="1203" y="936"/>
      <point x="1069" y="1100"/>
      <point x="827" y="1100" type="curve" smooth="yes"/>
      <point x="663" y="1100"/>
      <point x="578" y="1020"/>
      <point x="527" y="944" type="curve"/>
      <point x="511" y="1082" type="line"/>
      <point x="112" y="1082" type="line"/>
    </contour>
  </outline>
</glyph>
<glyph name="p" format="1">
  <advance width="1304"/>
  <unicode hex="0070"/>
  <outline>
    <contour>
      <point x="657" y="1082" type="move" name="top"/>
    </contour>
    <contour>
      <point x="111" y="-487" type="line"/>
      <point x="562" y="-487" type="line"/>
      <point x="562" y="-49" type="line"/>
      <point x="558" y="109" type="line"/>
      <point x="600" y="46"/>
      <point x="678" y="-20"/>
      <point x="809" y="-20" type="curve" smooth="yes"/>
      <point x="1111" y="-20"/>
      <point x="1238" y="219"/>
      <point x="1238" y="554" type="curve" smooth="yes"/>
      <point x="1238" y="854"/>
      <point x="1095" y="1100"/>
      <point x="809" y="1100" type="curve" smooth="yes"/>
      <point x="659" y="1100"/>
      <point x="574" y="1027"/>
      <point x="527" y="944" type="curve"/>
      <point x="524" y="1082" type="line"/>
      <point x="111" y="1082" type="line"/>
    </contour>
    <contour>
      <point x="670" y="260" type="curve" smooth="yes"/>
      <point x="602" y="260"/>
      <point x="584" y="296"/>
      <point x="567" y="312" type="curve"/>
      <point x="567" y="847" type="line"/>
      <point x="612" y="833"/>
      <point x="663" y="819"/>
      <point x="681" y="819" type="curve" smooth="yes"/>
      <point x="706" y="819"/>
      <point x="784" y="814"/>
      <point x="784" y="554" type="curve" smooth="yes"/>
      <point x="784" y="254"/>
      <point x="695" y="260"/>
    </contour>
  </outline>
</glyph>
<glyph name="s" format="1">
  <advance width="1042"/>
  <unicode hex="0073"/>
  <outline>
    <contour>
      <point x="472" y="1081" type="move" name="top"/>
    </contour>
    <contour>
      <point x="541" y="0" type="move" name="bot"/>
    </contour>
    <contour>
      <point x="565" y="-20" type="curve" smooth="yes"/>
      <point x="862" y="-20"/>
      <point x="1004" y="176"/>
      <point x="1004" y="337" type="curve" smooth="yes"/>
      <point x="1004" y="447"/>
      <point x="940" y="558"/>
      <point x="843" y="610" type="curve"/>
      <point x="616" y="720" type="line" smooth="yes"/>
      <point x="574" y="745"/>
      <point x="566" y="769"/>
      <point x="566" y="778" type="curve" smooth="yes"/>
      <point x="566" y="803"/>
      <point x="599" y="817"/>
      <point x="628" y="817" type="curve" smooth="yes"/>
      <point x="677" y="817"/>
      <point x="752" y="787"/>
      <point x="795" y="705" type="curve"/>
      <point x="812" y="705" type="line"/>
      <point x="1001" y="870" type="line"/>
      <point x="901" y="1058"/>
      <point x="706" y="1100"/>
      <point x="520" y="1100" type="curve" smooth="yes"/>
      <point x="263" y="1100"/>
      <point x="96" y="970"/>
      <point x="96" y="762" type="curve" smooth="yes"/>
      <point x="96" y="583"/>
      <point x="212" y="495"/>
      <point x="383" y="417" type="curve" smooth="yes"/>
      <point x="533" y="350" type="line" smooth="yes"/>
      <point x="548" y="340"/>
      <point x="567" y="316"/>
      <point x="567" y="297" type="curve" smooth="yes"/>
      <point x="567" y="284"/>
      <point x="547" y="261"/>
      <point x="497" y="261" type="curve" smooth="yes"/>
      <point x="420" y="261"/>
      <point x="307" y="307"/>
      <point x="277" y="404" type="curve"/>
      <point x="239" y="404" type="line"/>
      <point x="36" y="240" type="line"/>
      <point x="124" y="63"/>
      <point x="320" y="-20"/>
    </contour>
  </outline>
</glyph>
<glyph name="u" format="1">
  <advance width="1299"/>
  <unicode hex="0075"/>
  <outline>
    <contour>
      <point x="641" y="1082" type="move" name="top"/>
    </contour>
    <contour>
      <point x="999" y="0" type="move" name="ogonek"/>
    </contour>
    <contour>
      <point x="678" y="0" type="move" name="bot"/>
    </contour>
    <contour>
      <point x="459" y="-20" type="curve" smooth="yes"/>
      <point x="638" y="-20"/>
      <point x="726" y="79"/>
      <point x="770" y="177" type="curve"/>
      <point x="792" y="0" type="line"/>
      <point x="1187" y="0" type="line"/>
      <point x="1187" y="1082" type="line"/>
      <point x="727" y="1082" type="line"/>
      <point x="727" y="317" type="line"/>
      <point x="700" y="282"/>
      <point x="671" y="263"/>
      <point x="641" y="263" type="curve" smooth="yes"/>
      <point x="594" y="263"/>
      <point x="558" y="288"/>
      <point x="558" y="480" type="curve" smooth="yes"/>
      <point x="558" y="1082" type="line"/>
      <point x="99" y="1082" type="line"/>
      <point x="99" y="411" type="line" smooth="yes"/>
      <point x="99" y="153"/>
      <point x="223" y="-20"/>
    </contour>
  </outline>
</glyph>
<glyph name="v" format="1">
  <advance width="1112"/>
  <unicode hex="0076"/>
  <outline>
    <contour>
      <point x="334" y="0" type="line"/>
      <point x="788" y="0" type="line"/>
      <point x="1136" y="1082" type="line"/>
      <point x="677" y="1082" type="line"/>
      <point x="696" y="1140"/>
      <point x="562" y="437"/>
      <point x="582" y="495" type="curve"/>
      <point x="542" y="697"/>
      <point x="491" y="887"/>
      <point x="445" y="1082" type="curve"/>
      <point x="-25" y="1082" type="line"/>
    </contour>
  </outline>
</glyph>
<glyph name="w" format="1">
  <advance width="1680"/>
  <unicode hex="0077"/>
  <outline>
    <contour>
      <point x="865" y="1082" type="move" name="top"/>
    </contour>
    <contour>
      <point x="268" y="-8" type="line"/>
      <point x="675" y="-8" type="line"/>
      <point x="858" y="612" type="line"/>
      <point x="960" y="-8" type="line"/>
      <point x="1392" y="-8" type="line"/>
      <point x="1670" y="1082" type="line"/>
      <point x="1289" y="1082" type="line"/>
      <point x="1182" y="439" type="line"/>
      <point x="1063" y="1082" type="line"/>
      <point x="672" y="1082" type="line"/>
      <point x="507" y="412" type="line"/>
      <point x="430" y="1082" type="line"/>
      <point x="10" y="1082" type="line"/>
    </contour>
  </outline>
</glyph>
<glyph name="y" format="1">
  <advance width="1138"/>
  <unicode hex="0079"/>
  <outline>
    <contour>
      <point x="535" y="1082" type="move" name="top"/>
    </contour>
    <contour>
      <point x="455" y="-475" type="line"/>
      <point x="1190" y="1082" type="line"/>
      <point x="769" y="1082" type="line"/>
      <point x="575" y="615" type="line"/>
      <point x="371" y="1082" type="line"/>
      <point x="-68" y="1082" type="line"/>
      <point x="350" y="211" type="line"/>
      <point x="97" y="-324" type="line"/>
    </contour>
  </outline>
</glyph>
<glyph name="braceleft" format="1">
  <advance width="1016"/>
  <unicode hex="007B"/>
  <outline>
    <contour>
      <point x="882" y="-350" type="curve"/>
      <point x="882" y="-126" type="line"/>
      <point x="769" y="-120"/>
      <point x="686" y="-121"/>
      <point x="686" y="-18" type="curve" smooth="yes"/>
      <point x="686" y="383" type="line" smooth="yes"/>
      <point x="686" y="455"/>
      <point x="685" y="613"/>
      <point x="485" y="653" type="curve"/>
      <point x="685" y="694"/>
      <point x="686" y="852"/>
      <point x="686" y="924" type="curve" smooth="yes"/>
      <point x="686" y="1323" type="line" smooth="yes"/>
      <point x="686" y="1426"/>
      <point x="769" y="1426"/>
      <point x="882" y="1431" type="curve"/>
      <point x="882" y="1656" type="line"/>
      <point x="741" y="1656"/>
      <point x="412" y="1645"/>
      <point x="412" y="1430" type="curve" smooth="yes"/>
      <point x="412" y="928" type="line" smooth="yes"/>
      <point x="412" y="887"/>
      <point x="398" y="777"/>
      <point x="186" y="777" type="curve"/>
      <point x="186" y="530" type="line"/>
      <point x="398" y="530"/>
      <point x="412" y="418"/>
      <point x="412" y="378" type="curve" smooth="yes"/>
      <point x="412" y="-125" type="line" smooth="yes"/>
      <point x="412" y="-338"/>
      <point x="741" y="-350"/>
    </contour>
  </outline>
</glyph>
<glyph name="braceright" format="1">
  <advance width="1016"/>
  <unicode hex="007D"/>
  <outline>
    <contour>
      <point x="186" y="-350" type="line"/>
      <point x="326" y="-350"/>
      <point x="655" y="-338"/>
      <point x="655" y="-125" type="curve" smooth="yes"/>
      <point x="655" y="378" type="line" smooth="yes"/>
      <point x="655" y="418"/>
      <point x="670" y="530"/>
      <point x="880" y="530" type="curve"/>
      <point x="880" y="777" type="line"/>
      <point x="668" y="777"/>
      <point x="655" y="887"/>
      <point x="655" y="928" type="curve" smooth="yes"/>
      <point x="655" y="1430" type="line" smooth="yes"/>
      <point x="655" y="1645"/>
      <point x="326" y="1656"/>
      <point x="186" y="1656" type="curve"/>
      <point x="186" y="1431" type="line"/>
      <point x="299" y="1426"/>
      <point x="381" y="1426"/>
      <point x="381" y="1323" type="curve" smooth="yes"/>
      <point x="381" y="924" type="line" smooth="yes"/>
      <point x="381" y="852"/>
      <point x="383" y="694"/>
      <point x="582" y="653" type="curve"/>
      <point x="383" y="613"/>
      <point x="381" y="455"/>
      <point x="381" y="383" type="curve" smooth="yes"/>
      <point x="381" y="-18" type="line" smooth="yes"/>
      <point x="381" y="-121"/>
      <point x="299" y="-120"/>
      <point x="186" y="-126" type="curve"/>
    </contour>
  </outline>
</glyph>
<glyph name="cent" format="1">
  <advance width="1157"/>
  <unicode hex="00A2"/>
  <outline>
    <contour>
      <point x="563" y="-291" type="line"/>
      <point x="710" y="-291" type="line"/>
      <point x="704" y="68" type="line"/>
      <point x="576" y="68" type="line"/>
    </contour>
    <contour>
      <point x="579" y="1020" type="line"/>
      <point x="711" y="1020" type="line"/>
      <point x="740" y="1348" type="line"/>
      <point x="573" y="1348" type="line"/>
    </contour>
    <component base="c"/>
  </outline>
</glyph>
<glyph name="currency" format="1">
  <advance width="1082"/>
  <unicode hex="00A4"/>
  <outline>
    <contour>
      <point x="961" y="231" type="line"/>
      <point x="1088" y="364" type="line"/>
      <point x="913" y="535" type="line"/>
      <point x="952" y="604"/>
      <point x="973" y="677"/>
      <point x="973" y="759" type="curve" smooth="yes"/>
      <point x="973" y="846"/>
      <point x="946" y="923"/>
      <point x="912" y="983" type="curve"/>
      <point x="1089" y="1159" type="line"/>
      <point x="961" y="1294" type="line"/>
      <point x="780" y="1120" type="line"/>
      <point x="713" y="1170"/>
      <point x="641" y="1193"/>
      <point x="553" y="1193" type="curve" smooth="yes"/>
      <point x="471" y="1193"/>
      <point x="389" y="1160"/>
      <point x="325" y="1121" type="curve"/>
      <point x="152" y="1294" type="line"/>
      <point x="16" y="1159" type="line"/>
      <point x="196" y="983" type="line"/>
      <point x="159" y="914"/>
      <point x="135" y="842"/>
      <point x="135" y="759" type="curve" smooth="yes"/>
      <point x="135" y="677"/>
      <point x="162" y="598"/>
      <point x="196" y="535" type="curve"/>
      <point x="17" y="359" type="line"/>
      <point x="152" y="232" type="line"/>
      <point x="320" y="400" type="line"/>
      <point x="388" y="353"/>
      <point x="469" y="328"/>
      <point x="553" y="328" type="curve" smooth="yes"/>
      <point x="639" y="328"/>
      <point x="715" y="358"/>
      <point x="780" y="405" type="curve"/>
    </contour>
    <contour>
      <point x="553" y="528" type="curve" smooth="yes"/>
      <point x="442" y="528"/>
      <point x="328" y="627"/>
      <point x="328" y="759" type="curve" smooth="yes"/>
      <point x="328" y="892"/>
      <point x="442" y="994"/>
      <point x="553" y="994" type="curve" smooth="yes"/>
      <point x="667" y="994"/>
      <point x="785" y="892"/>
      <point x="785" y="759" type="curve" smooth="yes"/>
      <point x="785" y="625"/>
      <point x="671" y="528"/>
    </contour>
  </outline>
</glyph>
<glyph name="section" format="1">
  <advance width="995"/>
  <unicode hex="00A7"/>
  <outline>
    <contour>
      <point x="520" y="-20" type="curve" smooth="yes"/>
      <point x="745" y="-3"/>
      <point x="893" y="91"/>
      <point x="893" y="385" type="curve" smooth="yes"/>
      <point x="893" y="467"/>
      <point x="848" y="552"/>
      <point x="762" y="617" type="curve"/>
      <point x="839" y="678"/>
      <point x="908" y="744"/>
      <point x="908" y="866" type="curve" smooth="yes"/>
      <point x="908" y="957"/>
      <point x="854" y="1039"/>
      <point x="716" y="1112" type="curve" smooth="yes"/>
      <point x="499" y="1221"/>
      <point x="494" y="1247"/>
      <point x="494" y="1275" type="curve" smooth="yes"/>
      <point x="494" y="1307"/>
      <point x="547" y="1310"/>
      <point x="583" y="1310" type="curve" smooth="yes"/>
      <point x="650" y="1310"/>
      <point x="749" y="1291"/>
      <point x="818" y="1252" type="curve"/>
      <point x="890" y="1466" type="line"/>
      <point x="779" y="1548"/>
      <point x="635" y="1584"/>
      <point x="555" y="1584" type="curve" smooth="yes"/>
      <point x="416" y="1584"/>
      <point x="141" y="1553"/>
      <point x="141" y="1251" type="curve" smooth="yes"/>
      <point x="141" y="1121"/>
      <point x="212" y="1032"/>
      <point x="340" y="948" type="curve"/>
      <point x="247" y="882"/>
      <point x="161" y="803"/>
      <point x="161" y="707" type="curve" smooth="yes"/>
      <point x="161" y="576"/>
      <point x="275" y="528"/>
      <point x="431" y="447" type="curve" smooth="yes"/>
      <point x="535" y="386"/>
      <point x="563" y="360"/>
      <point x="563" y="327" type="curve" smooth="yes"/>
      <point x="563" y="281"/>
      <point x="531" y="259"/>
      <point x="475" y="259" type="curve" smooth="yes"/>
      <point x="359" y="259"/>
      <point x="196" y="326"/>
      <point x="162" y="356" type="curve"/>
      <point x="162" y="69" type="line"/>
      <point x="271" y="5"/>
      <point x="477" y="-28"/>
    </contour>
    <contour>
      <point x="630" y="687" type="curve"/>
      <point x="635" y="685"/>
      <point x="565" y="719"/>
      <point x="620" y="702" type="curve" smooth="yes"/>
      <point x="458" y="787"/>
      <point x="410" y="805"/>
      <point x="410" y="831" type="curve" smooth="yes"/>
      <point x="410" y="858"/>
      <point x="443" y="885"/>
      <point x="449" y="884" type="curve"/>
      <point x="447" y="885"/>
      <point x="573" y="835"/>
      <point x="598" y="812" type="curve" smooth="yes"/>
      <point x="641" y="777"/>
      <point x="660" y="744"/>
      <point x="660" y="727" type="curve" smooth="yes"/>
      <point x="660" y="712"/>
      <point x="647" y="701"/>
    </contour>
  </outline>
</glyph>
<glyph name="dieresis" format="1">
  <advance width="1199"/>
  <unicode hex="00A8"/>
  <outline>
    <contour>
      <point x="591" y="1082" type="move" name="_top"/>
    </contour>
    <contour>
      <point x="309" y="1186" type="curve" smooth="yes"/>
      <point x="419" y="1186"/>
      <point x="493" y="1254"/>
      <point x="493" y="1373" type="curve" smooth="yes"/>
      <point x="493" y="1493"/>
      <point x="419" y="1563"/>
      <point x="309" y="1563" type="curve" smooth="yes"/>
      <point x="196" y="1563"/>
      <point x="121" y="1493"/>
      <point x="121" y="1373" type="curve" smooth="yes"/>
      <point x="121" y="1254"/>
      <point x="196" y="1186"/>
    </contour>
    <contour>
      <point x="874" y="1186" type="curve" smooth="yes"/>
      <point x="986" y="1186"/>
      <point x="1060" y="1254"/>
      <point x="1060" y="1373" type="curve" smooth="yes"/>
      <point x="1060" y="1493"/>
      <point x="986" y="1563"/>
      <point x="874" y="1563" type="curve" smooth="yes"/>
      <point x="762" y="1563"/>
      <point x="685" y="1493"/>
      <point x="685" y="1373" type="curve" smooth="yes"/>
      <point x="685" y="1254"/>
      <point x="762" y="1186"/>
    </contour>
  </outline>
</glyph>
<glyph name="ordfeminine" format="1">
  <advance width="1185"/>
  <unicode hex="00AA"/>
  <outline>
    <contour>
      <point x="388" y="596" type="curve" smooth="yes"/>
      <point x="537" y="596"/>
      <point x="620" y="654"/>
      <point x="676" y="706" type="curve"/>
      <point x="719" y="609" type="line"/>
      <point x="1001" y="609" type="line"/>
      <point x="1001" y="1124" type="line" smooth="yes"/>
      <point x="1001" y="1432"/>
      <point x="812" y="1560"/>
      <point x="579" y="1560" type="curve" smooth="yes"/>
      <point x="448" y="1560"/>
      <point x="296" y="1518"/>
      <point x="140" y="1449" type="curve"/>
      <point x="203" y="1228" type="line"/>
      <point x="317" y="1260"/>
      <point x="419" y="1292"/>
      <point x="497" y="1292" type="curve" smooth="yes"/>
      <point x="563" y="1292"/>
      <point x="617" y="1270"/>
      <point x="617" y="1205" type="curve" smooth="yes"/>
      <point x="617" y="1165" type="line"/>
      <point x="533" y="1166" type="line" smooth="yes"/>
      <point x="388" y="1166"/>
      <point x="104" y="1128"/>
      <point x="104" y="879" type="curve" smooth="yes"/>
      <point x="104" y="693"/>
      <point x="222" y="596"/>
    </contour>
    <contour>
      <point x="533" y="793" type="curve" smooth="yes"/>
      <point x="494" y="793"/>
      <point x="450" y="823"/>
      <point x="450" y="886" type="curve" smooth="yes"/>
      <point x="450" y="991"/>
      <point x="567" y="1005"/>
      <point x="628" y="1005" type="curve" smooth="yes"/>
      <point x="615" y="1005" type="line"/>
      <point x="615" y="820" type="line"/>
      <point x="605" y="814"/>
      <point x="574" y="793"/>
    </contour>
  </outline>
</glyph>
<glyph name="logicalnot" format="1">
  <advance width="1167"/>
  <unicode hex="00AC"/>
  <outline>
    <contour>
      <point x="853" y="247" type="line"/>
      <point x="1117" y="247" type="line"/>
      <point x="1117" y="880" type="line"/>
      <point x="87" y="880" type="line"/>
      <point x="87" y="616" type="line"/>
      <point x="853" y="616" type="line"/>
    </contour>
  </outline>
</glyph>
<glyph name="registered" format="1">
  <advance width="1930"/>
  <unicode hex="00AE"/>
  <outline>
    <contour>
      <point x="587" y="338" type="line"/>
      <point x="792" y="338" type="line"/>
      <point x="792" y="701" type="line"/>
      <point x="801" y="701" type="line"/>
      <point x="797" y="704"/>
      <point x="1040" y="338"/>
      <point x="1040" y="338" type="curve"/>
      <point x="1283" y="338" type="line"/>
      <point x="1283" y="338"/>
      <point x="1017" y="713"/>
      <point x="1020" y="709" type="curve"/>
      <point x="1184" y="763"/>
      <point x="1228" y="819"/>
      <point x="1228" y="930" type="curve" smooth="yes"/>
      <point x="1228" y="1159"/>
      <point x="1047" y="1176"/>
      <point x="853" y="1176" type="curve" smooth="yes"/>
      <point x="587" y="1176" type="line"/>
    </contour>
    <contour>
      <point x="791" y="825" type="line"/>
      <point x="791" y="1027" type="line"/>
      <point x="882" y="1027"/>
      <point x="878" y="1028"/>
      <point x="906" y="1028" type="curve" smooth="yes"/>
      <point x="989" y="1028"/>
      <point x="1023" y="1019"/>
      <point x="1023" y="923" type="curve" smooth="yes"/>
      <point x="1023" y="830"/>
      <point x="945" y="825"/>
      <point x="804" y="825" type="curve" smooth="yes"/>
    </contour>
    <contour>
      <point x="893" y="122" type="curve" smooth="yes"/>
      <point x="550" y="122"/>
      <point x="296" y="418"/>
      <point x="296" y="729" type="curve" smooth="yes"/>
      <point x="296" y="1040"/>
      <point x="550" y="1334"/>
      <point x="893" y="1334" type="curve" smooth="yes"/>
      <point x="1235" y="1334"/>
      <point x="1487" y="1040"/>
      <point x="1487" y="729" type="curve" smooth="yes"/>
      <point x="1487" y="418"/>
      <point x="1235" y="122"/>
    </contour>
    <contour>
      <point x="893" y="-72" type="curve" smooth="yes"/>
      <point x="1356" y="-72"/>
      <point x="1697" y="312"/>
      <point x="1697" y="729" type="curve" smooth="yes"/>
      <point x="1697" y="1145"/>
      <point x="1356" y="1528"/>
      <point x="893" y="1528" type="curve" smooth="yes"/>
      <point x="428" y="1528"/>
      <point x="87" y="1145"/>
      <point x="87" y="729" type="curve" smooth="yes"/>
      <point x="87" y="312"/>
      <point x="428" y="-72"/>
    </contour>
  </outline>
</glyph>
<glyph name="macron" format="1">
  <advance width="980"/>
  <unicode hex="00AF"/>
  <outline>
    <contour>
      <point x="488" y="1089" type="move" name="_top"/>
    </contour>
    <contour>
      <point x="483" y="1313" type="move" name="_mid"/>
    </contour>
    <contour>
      <point x="99" y="1231" type="line"/>
      <point x="887" y="1231" type="line"/>
      <point x="887" y="1414" type="line"/>
      <point x="99" y="1414" type="line"/>
    </contour>
  </outline>
</glyph>
<glyph name="degree" format="1">
  <advance width="802"/>
  <unicode hex="00B0"/>
  <outline>
    <contour>
      <point x="419" y="1093" type="curve" smooth="yes"/>
      <point x="358" y="1093"/>
      <point x="297" y="1134"/>
      <point x="297" y="1226" type="curve" smooth="yes"/>
      <point x="297" y="1311"/>
      <point x="358" y="1352"/>
      <point x="420" y="1352" type="curve" smooth="yes"/>
      <point x="473" y="1352"/>
      <point x="536" y="1311"/>
      <point x="536" y="1226" type="curve" smooth="yes"/>
      <point x="536" y="1132"/>
      <point x="477" y="1093"/>
    </contour>
    <contour>
      <point x="419" y="907" type="curve" smooth="yes"/>
      <point x="644" y="907"/>
      <point x="742" y="1074"/>
      <point x="742" y="1227" type="curve" smooth="yes"/>
      <point x="742" y="1383"/>
      <point x="640" y="1532"/>
      <point x="419" y="1532" type="curve" smooth="yes"/>
      <point x="191" y="1532"/>
      <point x="94" y="1383"/>
      <point x="94" y="1227" type="curve" smooth="yes"/>
      <point x="94" y="1075"/>
      <point x="186" y="907"/>
    </contour>
  </outline>
</glyph>
<glyph name="uni00B2" format="1">
  <advance width="880"/>
  <unicode hex="00B2"/>
  <outline>
    <contour>
      <point x="159" y="563" type="line"/>
      <point x="743" y="563" type="line"/>
      <point x="767" y="753" type="line"/>
      <point x="505" y="753" type="line"/>
      <point x="648" y="876"/>
      <point x="550" y="763"/>
      <point x="665" y="876" type="curve" smooth="yes"/>
      <point x="719" y="932"/>
      <point x="767" y="1056"/>
      <point x="767" y="1165" type="curve" smooth="yes"/>
      <point x="767" y="1354"/>
      <point x="616" y="1466"/>
      <point x="484" y="1466" type="curve" smooth="yes"/>
      <point x="357" y="1466"/>
      <point x="257" y="1429"/>
      <point x="195" y="1337" type="curve"/>
      <point x="285" y="1178" type="line"/>
      <point x="321" y="1231"/>
      <point x="395" y="1260"/>
      <point x="452" y="1260" type="curve" smooth="yes"/>
      <point x="484" y="1260"/>
      <point x="541" y="1223"/>
      <point x="541" y="1158" type="curve" smooth="yes"/>
      <point x="541" y="1137"/>
      <point x="472" y="1051"/>
      <point x="485" y="1050" type="curve" smooth="yes"/>
      <point x="242" y="778"/>
      <point x="246" y="842"/>
      <point x="159" y="750" type="curve"/>
    </contour>
  </outline>
</glyph>
<glyph name="uni00B5" format="1">
  <advance width="1306"/>
  <unicode hex="00B5"/>
  <outline>
    <contour>
      <point x="1197" y="1082" type="line"/>
      <point x="736" y="1082" type="line"/>
      <point x="736" y="317" type="line"/>
      <point x="710" y="282"/>
      <point x="680" y="263"/>
      <point x="651" y="263" type="curve" smooth="yes"/>
      <point x="603" y="263"/>
      <point x="568" y="288"/>
      <point x="568" y="480" type="curve" smooth="yes"/>
      <point x="568" y="1082" type="line"/>
      <point x="108" y="1082" type="line"/>
      <point x="110" y="-350" type="line"/>
      <point x="568" y="-350" type="line"/>
      <point x="568" y="-26" type="line"/>
      <point x="612" y="-14"/>
      <point x="645" y="3"/>
      <point x="670" y="23" type="curve" smooth="yes"/>
      <point x="724" y="66"/>
      <point x="758" y="123"/>
      <point x="779" y="177" type="curve"/>
      <point x="801" y="0" type="line"/>
      <point x="1197" y="0" type="line"/>
    </contour>
  </outline>
</glyph>
<glyph name="paragraph" format="1">
  <advance width="1302"/>
  <unicode hex="00B6"/>
  <outline>
    <contour>
      <point x="522" y="-283" type="line"/>
      <point x="729" y="-283" type="line"/>
      <point x="729" y="1289" type="line"/>
      <point x="954" y="1289" type="line"/>
      <point x="954" y="-283" type="line"/>
      <point x="1161" y="-283" type="line"/>
      <point x="1161" y="1456" type="line"/>
      <point x="719" y="1456" type="line" smooth="yes"/>
      <point x="257" y="1456"/>
      <point x="82" y="1357"/>
      <point x="82" y="1023" type="curve" smooth="yes"/>
      <point x="82" y="816"/>
      <point x="233" y="636"/>
      <point x="522" y="636" type="curve"/>
    </contour>
  </outline>
</glyph>
<glyph name="periodcentered" format="1">
  <advance width="569"/>
  <unicode hex="00B7"/>
  <outline>
    <contour>
      <point x="581" y="413" type="curve" smooth="yes"/>
      <point x="705" y="413"/>
      <point x="780" y="495"/>
      <point x="780" y="630" type="curve" smooth="yes"/>
      <point x="780" y="759"/>
      <point x="705" y="838"/>
      <point x="581" y="838" type="curve" smooth="yes"/>
      <point x="454" y="838"/>
      <point x="378" y="759"/>
      <point x="378" y="630" type="curve" smooth="yes"/>
      <point x="378" y="495"/>
      <point x="454" y="413"/>
    </contour>
  </outline>
</glyph>
<glyph name="cedilla" format="1">
  <advance width="800"/>
  <unicode hex="00B8"/>
  <outline>
    <contour>
      <point x="578" y="29" type="move" name="_bot"/>
    </contour>
    <contour>
      <point x="502" y="-428" type="curve" smooth="yes"/>
      <point x="642" y="-428"/>
      <point x="759" y="-350"/>
      <point x="759" y="-209" type="curve" smooth="yes"/>
      <point x="759" y="-98"/>
      <point x="695" y="-34"/>
      <point x="593" y="-34" type="curve" smooth="yes"/>
      <point x="555" y="-34"/>
      <point x="513" y="-42"/>
      <point x="467" y="-60" type="curve"/>
      <point x="466" y="-143" type="line"/>
      <point x="473" y="-143"/>
      <point x="479" y="-143"/>
      <point x="485" y="-143" type="curve" smooth="yes"/>
      <point x="533" y="-143"/>
      <point x="561" y="-155"/>
      <point x="562" y="-198" type="curve" smooth="yes"/>
      <point x="562" y="-224"/>
      <point x="544" y="-264"/>
      <point x="470" y="-264" type="curve" smooth="yes"/>
      <point x="446" y="-264"/>
      <point x="413" y="-259"/>
      <point x="373" y="-248" type="curve"/>
      <point x="323" y="-391" type="line"/>
      <point x="385" y="-416"/>
      <point x="447" y="-428"/>
    </contour>
  </outline>
</glyph>
<glyph name="uni00B9" format="1">
  <advance width="842"/>
  <unicode hex="00B9"/>
  <outline>
    <contour>
      <point x="221" y="513" type="line"/>
      <point x="702" y="513" type="line"/>
      <point x="702" y="719" type="line"/>
      <point x="580" y="719" type="line"/>
      <point x="580" y="1443" type="line"/>
      <point x="395" y="1443" type="line"/>
      <point x="376" y="1440"/>
      <point x="244" y="1353"/>
      <point x="198" y="1321" type="curve"/>
      <point x="198" y="1117" type="line"/>
      <point x="206" y="1125"/>
      <point x="300" y="1180"/>
      <point x="332" y="1192" type="curve"/>
      <point x="332" y="719" type="line"/>
      <point x="221" y="719" type="line"/>
    </contour>
  </outline>
</glyph>
<glyph name="guillemotright" format="1">
  <advance width="1377"/>
  <unicode hex="00BB"/>
  <outline>
    <contour>
      <point x="462" y="120" type="line"/>
      <point x="713" y="583" type="line"/>
      <point x="462" y="1054" type="line"/>
      <point x="125" y="1054" type="line"/>
      <point x="360" y="586" type="line"/>
      <point x="126" y="120" type="line"/>
    </contour>
    <contour>
      <point x="982" y="120" type="line"/>
      <point x="1234" y="583" type="line"/>
      <point x="982" y="1054" type="line"/>
      <point x="643" y="1054" type="line"/>
      <point x="883" y="586" type="line"/>
      <point x="647" y="120" type="line"/>
    </contour>
  </outline>
</glyph>
<glyph name="AE" format="1">
  <advance width="2291"/>
  <unicode hex="00C6"/>
  <outline>
    <contour>
      <point x="70" y="0" type="line"/>
      <point x="537" y="0" type="line"/>
      <point x="726" y="300" type="line"/>
      <point x="1068" y="300" type="line"/>
      <point x="1068" y="0" type="line"/>
      <point x="2121" y="0" type="line"/>
      <point x="2128" y="305" type="line"/>
      <point x="1421" y="305" type="line"/>
      <point x="1421" y="574" type="line"/>
      <point x="2076" y="574" type="line"/>
      <point x="2076" y="870" type="line"/>
      <point x="1421" y="870" type="line"/>
      <point x="1421" y="1162" type="line"/>
      <point x="2074" y="1162" type="line"/>
      <point x="2101" y="1456" type="line"/>
      <point x="1032" y="1456" type="line"/>
    </contour>
    <contour>
      <point x="849" y="569" type="line"/>
      <point x="1068" y="913" type="line"/>
      <point x="1068" y="569" type="line"/>
    </contour>
  </outline>
</glyph>
<glyph name="multiply" format="1">
  <advance width="994"/>
  <unicode hex="00D7"/>
  <outline>
    <contour>
      <point x="937" y="196" type="line"/>
      <point x="937" y="196"/>
      <point x="789" y="337"/>
      <point x="690" y="441" type="curve"/>
      <point x="936" y="702" type="line"/>
      <point x="767" y="882" type="line"/>
      <point x="510" y="627" type="line"/>
      <point x="249" y="881" type="line"/>
      <point x="81" y="699" type="line"/>
      <point x="329" y="441" type="line"/>
      <point x="87" y="195" type="line"/>
      <point x="256" y="3" type="line"/>
      <point x="510" y="253" type="line"/>
      <point x="760" y="6" type="line"/>
    </contour>
  </outline>
</glyph>
<glyph name="Oslash" format="1">
  <advance width="1690"/>
  <unicode hex="00D8"/>
  <outline>
    <contour>
      <point x="842" y="1456" type="move" name="top"/>
    </contour>
    <contour>
      <point x="551" y="-259" type="line"/>
      <point x="648" y="-6" type="line"/>
      <point x="709" y="-18"/>
      <point x="774" y="-22"/>
      <point x="843" y="-22" type="curve" smooth="yes"/>
      <point x="1310" y="-22"/>
      <point x="1590" y="231"/>
      <point x="1590" y="727" type="curve" smooth="yes"/>
      <point x="1590" y="1071"/>
      <point x="1449" y="1308"/>
      <point x="1195" y="1413" type="curve"/>
      <point x="1301" y="1688" type="line"/>
      <point x="1133" y="1753" type="line"/>
      <point x="1022" y="1464" type="line"/>
      <point x="965" y="1472"/>
      <point x="905" y="1476"/>
      <point x="842" y="1476" type="curve" smooth="yes"/>
      <point x="376" y="1476"/>
      <point x="94" y="1208"/>
      <point x="94" y="723" type="curve" smooth="yes"/>
      <point x="94" y="381"/>
      <point x="237" y="153"/>
      <point x="481" y="46" type="curve"/>
      <point x="388" y="-199" type="line"/>
    </contour>
    <contour>
      <point x="637" y="454" type="line"/>
      <point x="631" y="527"/>
      <point x="617" y="613"/>
      <point x="617" y="722" type="curve" smooth="yes"/>
      <point x="617" y="989"/>
      <point x="713" y="1137"/>
      <point x="843" y="1137" type="curve" smooth="yes"/>
      <point x="859" y="1137"/>
      <point x="878" y="1134"/>
      <point x="895" y="1129" type="curve"/>
    </contour>
    <contour>
      <point x="845" y="315" type="curve" smooth="yes"/>
      <point x="821" y="315"/>
      <point x="799" y="320"/>
      <point x="777" y="329" type="curve"/>
      <point x="1035" y="996" type="line"/>
      <point x="1052" y="925"/>
      <point x="1065" y="834"/>
      <point x="1065" y="722" type="curve" smooth="yes"/>
      <point x="1065" y="448"/>
      <point x="970" y="315"/>
    </contour>
  </outline>
</glyph>
<glyph name="Thorn" format="1">
  <advance width="1581"/>
  <unicode hex="00DE"/>
  <outline>
    <contour>
      <point x="159" y="0" type="line"/>
      <point x="643" y="0" type="line"/>
      <point x="643" y="249" type="line"/>
      <point x="755" y="249" type="line" smooth="yes"/>
      <point x="1358" y="249"/>
      <point x="1554" y="462"/>
      <point x="1554" y="828" type="curve" smooth="yes"/>
      <point x="1554" y="1161"/>
      <point x="1366" y="1328"/>
      <point x="685" y="1328" type="curve" smooth="yes"/>
      <point x="643" y="1328" type="line"/>
      <point x="643" y="1440" type="line"/>
      <point x="159" y="1440" type="line"/>
    </contour>
    <contour>
      <point x="643" y="550" type="line"/>
      <point x="643" y="1033" type="line"/>
      <point x="716" y="1033" type="line" smooth="yes"/>
      <point x="1073" y="1033"/>
      <point x="1092" y="918"/>
      <point x="1092" y="802" type="curve" smooth="yes"/>
      <point x="1092" y="685"/>
      <point x="1025" y="550"/>
      <point x="678" y="550" type="curve" smooth="yes"/>
    </contour>
  </outline>
</glyph>
<glyph name="germandbls" format="1">
  <advance width="1368"/>
  <unicode hex="00DF"/>
  <outline>
    <contour>
      <point x="946" y="-20" type="curve" smooth="yes"/>
      <point x="1248" y="-20"/>
      <point x="1372" y="108"/>
      <point x="1372" y="344" type="curve" smooth="yes"/>
      <point x="1372" y="736"/>
      <point x="1000" y="767"/>
      <point x="1000" y="786" type="curve" smooth="yes"/>
      <point x="1000" y="809"/>
      <point x="1222" y="873"/>
      <point x="1222" y="1113" type="curve" smooth="yes"/>
      <point x="1222" y="1398"/>
      <point x="961" y="1526"/>
      <point x="661" y="1526" type="curve" smooth="yes"/>
      <point x="354" y="1526"/>
      <point x="95" y="1345"/>
      <point x="95" y="1020" type="curve" smooth="yes"/>
      <point x="95" y="-1" type="line"/>
      <point x="556" y="-1" type="line"/>
      <point x="556" y="955" type="line" smooth="yes"/>
      <point x="556" y="1081"/>
      <point x="583" y="1218"/>
      <point x="691" y="1218" type="curve" smooth="yes"/>
      <point x="749" y="1218"/>
      <point x="804" y="1195"/>
      <point x="804" y="1108" type="curve" smooth="yes"/>
      <point x="804" y="966"/>
      <point x="655" y="923"/>
      <point x="655" y="747" type="curve" smooth="yes"/>
      <point x="655" y="557"/>
      <point x="876" y="587"/>
      <point x="876" y="357" type="curve" smooth="yes"/>
      <point x="876" y="282"/>
      <point x="830" y="278"/>
      <point x="791" y="278" type="curve" smooth="yes"/>
      <point x="754" y="278"/>
      <point x="699" y="296"/>
      <point x="673" y="312" type="curve"/>
      <point x="597" y="47" type="line"/>
      <point x="748" y="-8"/>
      <point x="866" y="-20"/>
    </contour>
  </outline>
</glyph>
<glyph name="divide" format="1">
  <advance width="1330"/>
  <unicode hex="00F7"/>
  <outline>
    <contour>
      <point x="475" y="12" type="line"/>
      <point x="817" y="12" type="line"/>
      <point x="817" y="354" type="line"/>
      <point x="475" y="354" type="line"/>
    </contour>
    <contour>
      <point x="71" y="481" type="line"/>
      <point x="1222" y="481" type="line"/>
      <point x="1222" y="733" type="line"/>
      <point x="71" y="733" type="line"/>
    </contour>
    <contour>
      <point x="475" y="881" type="line"/>
      <point x="830" y="881" type="line"/>
      <point x="830" y="1204" type="line"/>
      <point x="475" y="1204" type="line"/>
    </contour>
  </outline>
</glyph>
<glyph name="thorn" format="1">
  <advance width="1188"/>
  <unicode hex="00FE"/>
  <outline>
    <contour>
      <point x="138" y="-400" type="line"/>
      <point x="410" y="-400" type="line"/>
      <point x="410" y="24" type="line"/>
      <point x="476" y="-14"/>
      <point x="561" y="-20"/>
      <point x="623" y="-20" type="curve" smooth="yes"/>
      <point x="908" y="-20"/>
      <point x="1073" y="203"/>
      <point x="1073" y="555" type="curve" smooth="yes"/>
      <point x="1073" y="852"/>
      <point x="972" y="1111"/>
      <point x="684" y="1111" type="curve" smooth="yes"/>
      <point x="608" y="1111"/>
      <point x="477" y="1123"/>
      <point x="406" y="904" type="curve"/>
      <point x="422" y="1110" type="line"/>
      <point x="422" y="1560" type="line"/>
      <point x="138" y="1540" type="line"/>
    </contour>
    <contour>
      <point x="598" y="193" type="curve" smooth="yes"/>
      <point x="591" y="193"/>
      <point x="491" y="149"/>
      <point x="409" y="197" type="curve"/>
      <point x="409" y="527" type="line" smooth="yes"/>
      <point x="411" y="758"/>
      <point x="417" y="896"/>
      <point x="634" y="896" type="curve" smooth="yes"/>
      <point x="745" y="896"/>
      <point x="781" y="778"/>
      <point x="781" y="549" type="curve" smooth="yes"/>
      <point x="781" y="293"/>
      <point x="718" y="193"/>
    </contour>
  </outline>
</glyph>
<glyph name="dotlessi" format="1">
  <advance width="665"/>
  <unicode hex="0131"/>
  <outline>
    <contour>
      <point x="346" y="1082" type="move" name="top"/>
    </contour>
    <contour>
      <point x="376" y="0" type="move" name="ogonek"/>
    </contour>
    <contour>
      <point x="105" y="0" type="line"/>
      <point x="565" y="0" type="line"/>
      <point x="565" y="1082" type="line"/>
      <point x="105" y="1082" type="line"/>
    </contour>
  </outline>
</glyph>
<glyph name="kgreenlandic" format="1">
  <advance width="1245"/>
  <unicode hex="0138"/>
  <outline>
    <contour>
      <point x="84" y="0" type="line"/>
      <point x="416" y="0" type="line"/>
      <point x="416" y="344" type="line"/>
      <point x="464" y="403" type="line"/>
      <point x="735" y="0" type="line"/>
      <point x="1124" y="0" type="line"/>
      <point x="1124" y="-2" type="line"/>
      <point x="725" y="587" type="line"/>
      <point x="1106" y="1066" type="line"/>
      <point x="1106" y="1082" type="line"/>
      <point x="719" y="1082" type="line"/>
      <point x="410" y="671" type="line"/>
      <point x="416" y="884" type="line"/>
      <point x="416" y="1082" type="line"/>
      <point x="84" y="1082" type="line"/>
    </contour>
  </outline>
</glyph>
<glyph name="eng" format="1">
  <advance width="1271"/>
  <unicode hex="014B"/>
  <outline>
    <contour>
      <point x="527" y="944" type="curve"/>
      <point x="511" y="1082" type="line"/>
      <point x="112" y="1082" type="line"/>
      <point x="112" y="0" type="line"/>
      <point x="573" y="0" type="line"/>
      <point x="573" y="628" type="line" smooth="yes"/>
      <point x="573" y="799"/>
      <point x="629" y="819"/>
      <point x="651" y="819" type="curve" smooth="yes"/>
      <point x="702" y="819"/>
      <point x="742" y="800"/>
      <point x="742" y="605" type="curve" smooth="yes"/>
      <point x="742" y="-23" type="line" smooth="yes"/>
      <point x="742" y="-259"/>
      <point x="711" y="-274"/>
      <point x="568" y="-274" type="curve"/>
      <point x="607" y="-544" type="line"/>
      <point x="1076" y="-518"/>
      <point x="1203" y="-373"/>
      <point x="1203" y="-82" type="curve" smooth="yes"/>
      <point x="1203" y="682" type="line" smooth="yes"/>
      <point x="1203" y="936"/>
      <point x="1069" y="1100"/>
      <point x="827" y="1100" type="curve" smooth="yes"/>
      <point x="663" y="1100"/>
      <point x="578" y="1020"/>
    </contour>
  </outline>
</glyph>
<glyph name="apostrophemod" format="1">
  <advance width="652"/>
  <unicode hex="02BC"/>
  <outline>
    <contour>
      <point x="11" y="1058" type="curve"/>
      <point x="316" y="1058" type="line"/>
      <point x="316" y="1058"/>
      <point x="358" y="1304"/>
      <point x="402" y="1547" type="curve"/>
      <point x="54" y="1547" type="line"/>
      <point x="41" y="1424"/>
      <point x="11" y="1058"/>
    </contour>
  </outline>
</glyph>
<glyph name="dotaccent" format="1">
  <advance width="740"/>
  <unicode hex="02D9"/>
  <outline>
    <contour>
      <point x="374" y="1082" type="move" name="_top"/>
    </contour>
    <contour>
      <point x="376" y="1247" type="curve" smooth="yes"/>
      <point x="522" y="1247"/>
      <point x="617" y="1338"/>
      <point x="617" y="1475" type="curve" smooth="yes"/>
      <point x="617" y="1604"/>
      <point x="522" y="1694"/>
      <point x="376" y="1694" type="curve" smooth="yes"/>
      <point x="230" y="1694"/>
      <point x="135" y="1604"/>
      <point x="135" y="1475" type="curve" smooth="yes"/>
      <point x="135" y="1338"/>
      <point x="230" y="1247"/>
    </contour>
  </outline>
</glyph>
<glyph name="tilde" format="1">
  <advance width="960"/>
  <unicode hex="02DC"/>
  <outline>
    <contour>
      <point x="507" y="1085" type="move" name="_top"/>
    </contour>
    <contour>
      <point x="133" y="1233" type="curve"/>
      <point x="303" y="1233" type="line"/>
      <point x="324" y="1307"/>
      <point x="347" y="1332"/>
      <point x="382" y="1332" type="curve" smooth="yes"/>
      <point x="445" y="1332"/>
      <point x="532" y="1233"/>
      <point x="649" y="1233" type="curve" smooth="yes"/>
      <point x="839" y="1233"/>
      <point x="877" y="1434"/>
      <point x="877" y="1535" type="curve"/>
      <point x="709" y="1535" type="line"/>
      <point x="690" y="1474"/>
      <point x="671" y="1456"/>
      <point x="646" y="1456" type="curve" smooth="yes"/>
      <point x="594" y="1456"/>
      <point x="519" y="1536"/>
      <point x="370" y="1536" type="curve" smooth="yes"/>
      <point x="171" y="1536"/>
      <point x="133" y="1346"/>
    </contour>
  </outline>
</glyph>
<glyph name="uni0307" format="1">
  <advance width="747"/>
  <unicode hex="0307"/>
  <outline>
    <contour>
      <point x="374" y="1246" type="curve" smooth="yes"/>
      <point x="513" y="1246"/>
      <point x="601" y="1328"/>
      <point x="601" y="1458" type="curve" smooth="yes"/>
      <point x="601" y="1581"/>
      <point x="513" y="1660"/>
      <point x="374" y="1660" type="curve" smooth="yes"/>
      <point x="237" y="1660"/>
      <point x="146" y="1581"/>
      <point x="146" y="1458" type="curve" smooth="yes"/>
      <point x="146" y="1328"/>
      <point x="237" y="1246"/>
    </contour>
  </outline>
</glyph>
<glyph name="commaturnedabovecomb" format="1">
  <advance width="600"/>
  <unicode hex="0312"/>
  <outline>
    <contour>
      <point x="285" y="1089" type="move" name="_top"/>
    </contour>
    <contour>
      <point x="106" y="1269" type="line"/>
      <point x="459" y="1269" type="line"/>
      <point x="459" y="1241"/>
      <point x="542" y="1794"/>
      <point x="542" y="1794" type="curve"/>
      <point x="275" y="1794" type="line"/>
      <point x="275" y="1794"/>
      <point x="119" y="1304"/>
      <point x="119" y="1282" type="curve"/>
    </contour>
  </outline>
</glyph>
<glyph name="commaaccent" format="1">
  <advance width="629"/>
  <unicode hex="0326"/>
  <outline>
    <contour>
      <point x="357" y="0" type="move" name="_bot"/>
    </contour>
    <contour>
      <point x="87" y="-570" type="curve"/>
      <point x="363" y="-570" type="line"/>
      <point x="363" y="-570"/>
      <point x="473" y="-285"/>
      <point x="530" y="-125" type="curve" smooth="yes"/>
      <point x="530" y="-82" type="line"/>
      <point x="193" y="-82" type="line"/>
      <point x="171" y="-169"/>
      <point x="108" y="-473"/>
    </contour>
  </outline>
</glyph>
<glyph name="pi" format="1">
  <advance width="1516"/>
  <unicode hex="03C0"/>
  <outline>
    <contour>
      <point x="1111" y="-13" type="curve" smooth="yes"/>
      <point x="1207" y="-21"/>
      <point x="1290" y="10"/>
      <point x="1324" y="43" type="curve"/>
      <point x="1324" y="166" type="line"/>
      <point x="1309" y="161"/>
      <point x="1293" y="160"/>
      <point x="1273" y="160" type="curve" smooth="yes"/>
      <point x="1227" y="160"/>
      <point x="1173" y="168"/>
      <point x="1173" y="225" type="curve" smooth="yes"/>
      <point x="1173" y="411"/>
      <point x="1170" y="666"/>
      <point x="1169" y="805" type="curve"/>
      <point x="1399" y="805" type="line"/>
      <point x="1399" y="1082" type="line"/>
      <point x="536" y="1082" type="line" smooth="yes"/>
      <point x="307" y="1082"/>
      <point x="235" y="890"/>
      <point x="235" y="679" type="curve"/>
      <point x="328" y="679" type="line"/>
      <point x="340" y="754"/>
      <point x="377" y="804"/>
      <point x="455" y="805" type="curve" smooth="yes"/>
      <point x="487" y="805" type="line"/>
      <point x="425" y="375" type="line" smooth="yes"/>
      <point x="395" y="168"/>
      <point x="256" y="107"/>
      <point x="247" y="107" type="curve"/>
      <point x="247" y="4" type="line"/>
      <point x="581" y="4"/>
      <point x="647" y="102"/>
      <point x="658" y="313" type="curve" smooth="yes"/>
      <point x="684" y="805" type="line"/>
      <point x="969" y="805" type="line"/>
      <point x="931" y="610"/>
      <point x="896" y="436"/>
      <point x="896" y="295" type="curve" smooth="yes"/>
      <point x="896" y="123"/>
      <point x="946" y="6"/>
    </contour>
  </outline>
</glyph>
<glyph name="endash" format="1">
  <advance width="1087"/>
  <unicode hex="2013"/>
  <outline>
    <contour>
      <point x="173" y="395" type="line"/>
      <point x="914" y="395" type="line"/>
      <point x="914" y="673" type="line"/>
      <point x="173" y="673" type="line"/>
    </contour>
  </outline>
</glyph>
<glyph name="quoteright" format="1">
  <advance width="533"/>
  <unicode hex="2019"/>
  <outline>
    <contour>
      <point x="90" y="1041" type="line"/>
      <point x="348" y="1041" type="line"/>
      <point x="480" y="1583" type="line"/>
      <point x="120" y="1583" type="line"/>
    </contour>
  </outline>
</glyph>
<glyph name="quotesinglbase" format="1">
  <advance width="561"/>
  <unicode hex="201A"/>
  <outline>
    <contour>
      <point x="106" y="-417" type="line"/>
      <point x="367" y="-417" type="line"/>
      <point x="497" y="130" type="line"/>
      <point x="133" y="130" type="line"/>
    </contour>
  </outline>
</glyph>
<glyph name="quotedblbase" format="1">
  <advance width="1075"/>
  <unicode hex="201E"/>
  <outline>
    <contour>
      <point x="102" y="-417" type="line"/>
      <point x="363" y="-417" type="line"/>
      <point x="497" y="130" type="line"/>
      <point x="130" y="130" type="line"/>
    </contour>
    <contour>
      <point x="574" y="-417" type="line"/>
      <point x="837" y="-417" type="line"/>
      <point x="968" y="130" type="line"/>
      <point x="603" y="130" type="line"/>
    </contour>
  </outline>
</glyph>
<glyph name="guilsinglright" format="1">
  <advance width="928"/>
  <unicode hex="203A"/>
  <outline>
    <contour>
      <point x="116" y="91" type="line"/>
      <point x="533" y="91" type="line"/>
      <point x="796" y="563" type="line"/>
      <point x="523" y="1050" type="line"/>
      <point x="112" y="1050" type="line"/>
      <point x="364" y="558" type="line"/>
    </contour>
  </outline>
</glyph>
<glyph name="uni2074" format="1">
  <advance width="679"/>
  <unicode hex="2074"/>
  <outline>
    <contour>
      <point x="312" y="560" type="line"/>
      <point x="512" y="560" type="line"/>
      <point x="514" y="724" type="line"/>
      <point x="598" y="724" type="line"/>
      <point x="622" y="897" type="line"/>
      <point x="511" y="897" type="line"/>
      <point x="511" y="1442" type="line"/>
      <point x="300" y="1442" type="line"/>
      <point x="-50" y="905" type="line"/>
      <point x="-50" y="724" type="line"/>
      <point x="312" y="724" type="line"/>
    </contour>
    <contour>
      <point x="176" y="897" type="line"/>
      <point x="312" y="1170" type="line"/>
      <point x="313" y="897" type="line"/>
    </contour>
  </outline>
</glyph>
<glyph name="trademark" format="1">
  <advance width="1966"/>
  <unicode hex="2122"/>
  <outline>
    <contour>
      <point x="867" y="521" type="line"/>
      <point x="1101" y="521" type="line"/>
      <point x="1127" y="987" type="line"/>
      <point x="1329" y="579" type="line"/>
      <point x="1431" y="579" type="line"/>
      <point x="1634" y="991" type="line"/>
      <point x="1659" y="521" type="line"/>
      <point x="1892" y="521" type="line"/>
      <point x="1870" y="1456" type="line"/>
      <point x="1629" y="1456" type="line"/>
      <point x="1381" y="926" type="line"/>
      <point x="1128" y="1456" type="line"/>
      <point x="889" y="1456" type="line"/>
    </contour>
    <contour>
      <point x="313" y="521" type="line"/>
      <point x="555" y="521" type="line"/>
      <point x="555" y="1273" type="line"/>
      <point x="778" y="1273" type="line"/>
      <point x="778" y="1456" type="line"/>
      <point x="88" y="1456" type="line"/>
      <point x="88" y="1273" type="line"/>
      <point x="313" y="1273" type="line"/>
    </contour>
  </outline>
</glyph>
<glyph name="estimated" format="1">
  <advance width="1272"/>
  <unicode hex="212E"/>
  <outline>
    <contour>
      <point x="702" y="411" type="curve" smooth="yes"/>
      <point x="903" y="411"/>
      <point x="1032" y="495"/>
      <point x="1130" y="613" type="curve"/>
      <point x="1080" y="662" type="line"/>
      <point x="986" y="559"/>
      <point x="878" y="484"/>
      <point x="702" y="484" type="curve" smooth="yes"/>
      <point x="481" y="484"/>
      <point x="434" y="666"/>
      <point x="433" y="932" type="curve"/>
      <point x="1138" y="932" type="line"/>
      <point x="1138" y="1266"/>
      <point x="996" y="1486"/>
      <point x="686" y="1486" type="curve" smooth="yes"/>
      <point x="375" y="1486"/>
      <point x="153" y="1260"/>
      <point x="153" y="952" type="curve" smooth="yes"/>
      <point x="153" y="644"/>
      <point x="337" y="411"/>
    </contour>
    <contour>
      <point x="432" y="1012" type="line"/>
      <point x="450" y="1262"/>
      <point x="526" y="1426"/>
      <point x="692" y="1426" type="curve" smooth="yes"/>
      <point x="895" y="1426"/>
      <point x="959" y="1239"/>
      <point x="959" y="1012" type="curve"/>
    </contour>
  </outline>
</glyph>
<glyph name="uni2206" format="1">
  <advance width="1360"/>
  <unicode hex="2206"/>
  <outline>
    <contour>
      <point x="76" y="0" type="line"/>
      <point x="1293" y="0" type="line"/>
      <point x="1293" y="163" type="line"/>
      <point x="783" y="1616" type="line"/>
      <point x="587" y="1616" type="line"/>
      <point x="76" y="163" type="line"/>
    </contour>
    <contour>
      <point x="285" y="253" type="line"/>
      <point x="586" y="1082" type="line"/>
      <point x="622" y="1208" type="line"/>
      <point x="656" y="1082" type="line"/>
      <point x="952" y="253" type="line"/>
    </contour>
  </outline>
</glyph>
<glyph name="summation" format="1">
  <advance width="1275"/>
  <unicode hex="2211"/>
  <outline>
    <contour>
      <point x="67" y="-315" type="line"/>
      <point x="1194" y="-315" type="line"/>
      <point x="1194" y="16" type="line"/>
      <point x="506" y="16" type="line"/>
      <point x="1009" y="581" type="line"/>
      <point x="596" y="1128" type="line"/>
      <point x="1169" y="1128" type="line"/>
      <point x="1169" y="1456" type="line"/>
      <point x="64" y="1456" type="line"/>
      <point x="64" y="1163" type="line"/>
      <point x="559" y="551" type="line"/>
      <point x="67" y="-27" type="line"/>
    </contour>
  </outline>
</glyph>
<glyph name="infinity" format="1">
  <advance width="1853"/>
  <unicode hex="221E"/>
  <outline>
    <contour>
      <point x="508" y="261" type="curve" smooth="yes"/>
      <point x="680" y="261"/>
      <point x="815" y="378"/>
      <point x="938" y="544" type="curve"/>
      <point x="1079" y="354"/>
      <point x="1207" y="261"/>
      <point x="1365" y="261" type="curve" smooth="yes"/>
      <point x="1570" y="261"/>
      <point x="1730" y="430"/>
      <point x="1730" y="668" type="curve" smooth="yes"/>
      <point x="1730" y="895"/>
      <point x="1599" y="1061"/>
      <point x="1367" y="1061" type="curve" smooth="yes"/>
      <point x="1187" y="1061"/>
      <point x="1056" y="942"/>
      <point x="938" y="777" type="curve"/>
      <point x="812" y="947"/>
      <point x="680" y="1061"/>
      <point x="504" y="1061" type="curve" smooth="yes"/>
      <point x="302" y="1061"/>
      <point x="139" y="894"/>
      <point x="139" y="686" type="curve" smooth="yes"/>
      <point x="139" y="458"/>
      <point x="277" y="261"/>
    </contour>
    <contour>
      <point x="510" y="512" type="curve" smooth="yes"/>
      <point x="420" y="512"/>
      <point x="355" y="590"/>
      <point x="355" y="663" type="curve" smooth="yes"/>
      <point x="355" y="745"/>
      <point x="413" y="814"/>
      <point x="503" y="814" type="curve" smooth="yes"/>
      <point x="591" y="814"/>
      <point x="667" y="762"/>
      <point x="741" y="663" type="curve"/>
      <point x="666" y="567"/>
      <point x="587" y="512"/>
    </contour>
    <contour>
      <point x="1367" y="512" type="curve" smooth="yes"/>
      <point x="1292" y="512"/>
      <point x="1229" y="555"/>
      <point x="1142" y="665" type="curve"/>
      <point x="1214" y="757"/>
      <point x="1286" y="814"/>
      <point x="1363" y="814" type="curve" smooth="yes"/>
      <point x="1448" y="814"/>
      <point x="1507" y="755"/>
      <point x="1507" y="691" type="curve" smooth="yes"/>
      <point x="1507" y="575"/>
      <point x="1463" y="512"/>
    </contour>
  </outline>
</glyph>
<glyph name="greaterequal" format="1">
  <advance width="1192"/>
  <unicode hex="2265"/>
  <outline>
    <contour>
      <point x="134" y="204" type="line"/>
      <point x="1077" y="675" type="line"/>
      <point x="1077" y="830" type="line"/>
      <point x="134" y="1301" type="line"/>
      <point x="134" y="1035" type="line"/>
      <point x="812" y="752" type="line"/>
      <point x="134" y="481" type="line"/>
    </contour>
    <contour>
      <point x="142" y="0" type="line"/>
      <point x="1073" y="0" type="line"/>
      <point x="1073" y="203" type="line"/>
      <point x="142" y="205" type="line"/>
    </contour>
  </outline>
</glyph>
<glyph name="lozenge" format="1">
  <advance width="1246"/>
  <unicode hex="25CA"/>
  <outline>
    <contour>
      <point x="536" y="-45" type="line"/>
      <point x="690" y="-45" type="line"/>
      <point x="1160" y="719" type="line"/>
      <point x="702" y="1490" type="line"/>
      <point x="543" y="1490" type="line"/>
      <point x="82" y="720" type="line"/>
    </contour>
    <contour>
      <point x="602" y="171" type="curve"/>
      <point x="293" y="752"/>
      <point x="590" y="138"/>
      <point x="288" y="722" type="curve"/>
      <point x="598" y="1306"/>
      <point x="308" y="697"/>
      <point x="622" y="1278" type="curve"/>
      <point x="921" y="691"/>
      <point x="651" y="1304"/>
      <point x="954" y="724" type="curve"/>
      <point x="642" y="139"/>
      <point x="915" y="757"/>
    </contour>
  </outline>
</glyph>
<glyph name="middot" format="1">
  <advance width="669"/>
  <outline>
    <contour>
      <point x="298" y="702" type="move" name="_mid"/>
    </contour>
    <component base="period" xOffset="-76" yOffset="505"/>
  </outline>
</glyph>
